<svg width="35" height="35" viewBox="0 0 35 35" fill="none" xmlns="http://www.w3.org/2000/svg">
<rect width="35" height="35" rx="10" fill="#34C759" fill-opacity="0.1"/>
<rect x="1" y="1" width="33" height="33" rx="9" stroke="#34C759" stroke-opacity="0.5" stroke-width="2"/>
<path fill-rule="evenodd" clip-rule="evenodd" d="M22.7558 13.2442C22.43 12.9183 21.9033 12.9183 21.5775 13.2442L14.6667 20.155V15.5C14.6667 15.04 14.2942 14.6667 13.8333 14.6667C13.3725 14.6667 13 15.04 13 15.5V22.1667C13 22.6267 13.3725 23 13.8333 23H20.5C20.9608 23 21.3333 22.6267 21.3333 22.1667C21.3333 21.7067 20.9608 21.3333 20.5 21.3333H15.845L22.7558 14.4225C23.0817 14.0967 23.0817 13.57 22.7558 13.2442Z" fill="#34C759"/>
<mask id="mask0" mask-type="alpha" maskUnits="userSpaceOnUse" x="13" y="12" width="11" height="11">
<path fill-rule="evenodd" clip-rule="evenodd" d="M22.7558 13.2442C22.43 12.9183 21.9033 12.9183 21.5775 13.2442L14.6667 20.155V15.5C14.6667 15.04 14.2942 14.6667 13.8333 14.6667C13.3725 14.6667 13 15.04 13 15.5V22.1667C13 22.6267 13.3725 23 13.8333 23H20.5C20.9608 23 21.3333 22.6267 21.3333 22.1667C21.3333 21.7067 20.9608 21.3333 20.5 21.3333H15.845L22.7558 14.4225C23.0817 14.0967 23.0817 13.57 22.7558 13.2442Z" fill="white"/>
</mask>
<g mask="url(#mask0)">
<rect x="8" y="8" width="20" height="20" fill="#34C759"/>
</g>
</svg>
