<svg width="35" height="35" viewBox="0 0 35 35" fill="none" xmlns="http://www.w3.org/2000/svg">
<rect width="35" height="35" rx="10" fill="#FF2D55" fill-opacity="0.1"/>
<rect x="1" y="1" width="33" height="33" rx="9" stroke="#FF2D55" stroke-opacity="0.5" stroke-width="2"/>
<path fill-rule="evenodd" clip-rule="evenodd" d="M22.9943 13.874C22.9943 13.4165 22.6243 13.044 22.166 13.0415L15.5052 12.9998H15.5002C15.0418 12.9998 14.6702 13.3698 14.6668 13.8282C14.6635 14.2882 15.0343 14.664 15.4952 14.6665L20.1268 14.6957L13.2443 21.5773C12.9185 21.9032 12.9185 22.4307 13.2443 22.7557C13.4068 22.919 13.6202 22.9998 13.8335 22.9998C14.0468 22.9998 14.2602 22.919 14.4227 22.7557L21.3293 15.849L21.3335 20.5007C21.3335 20.9607 21.7068 21.3332 22.1668 21.3332H22.1677C22.6277 21.3332 23.0002 20.959 23.0002 20.499L22.9943 13.874Z" fill="#FF2D55"/>
<mask id="mask0" mask-type="alpha" maskUnits="userSpaceOnUse" x="13" y="12" width="11" height="11">
<path fill-rule="evenodd" clip-rule="evenodd" d="M22.9943 13.874C22.9943 13.4165 22.6243 13.044 22.166 13.0415L15.5052 12.9998H15.5002C15.0418 12.9998 14.6702 13.3698 14.6668 13.8282C14.6635 14.2882 15.0343 14.664 15.4952 14.6665L20.1268 14.6957L13.2443 21.5773C12.9185 21.9032 12.9185 22.4307 13.2443 22.7557C13.4068 22.919 13.6202 22.9998 13.8335 22.9998C14.0468 22.9998 14.2602 22.919 14.4227 22.7557L21.3293 15.849L21.3335 20.5007C21.3335 20.9607 21.7068 21.3332 22.1668 21.3332H22.1677C22.6277 21.3332 23.0002 20.959 23.0002 20.499L22.9943 13.874Z" fill="white"/>
</mask>
<g mask="url(#mask0)">
<rect x="8" y="8.00001" width="20" height="20" fill="#FF2D55"/>
</g>
</svg>
